# This file uses centimeters as units for non-parametric coordinates.

mtllib TriGrande.mtl
g default
v 0.030699 7.071464 -0.279570
v 0.023117 0.000400 -0.279570
v 3.562437 3.532140 -0.279570
v 0.030699 7.071464 0.278814
v 3.562437 3.532140 0.278814
v 0.023117 0.000400 0.278814
vt 0.986089 0.000000
vt 0.984006 1.000000
vt 0.013538 0.499464
vt 0.986462 0.000000
vt 0.013911 0.499464
vt 0.984379 1.000000
vn 0.000000 0.000000 -1.000000
vn 0.000000 0.000000 -1.000000
vn 0.000000 0.000000 -1.000000
vn 0.288093 -0.288712 0.913043
vn 0.706348 -0.707864 0.000000
vn 0.706348 -0.707864 0.000000
vn 0.301201 -0.000323 0.953561
vn 0.288712 0.288093 0.913043
vn 0.707865 0.706348 0.000000
vn 0.707865 0.706348 0.000000
vn -0.999999 0.001072 0.000000
vn -0.999999 0.001072 0.000000
vn -1.000000 0.001072 0.000000
vn -0.999999 0.001072 0.000000
s off
g pCube1
usemtl blinn2SG
f 2/1/1 1/2/2 3/3/3
s 1
f 6/4/4 2/1/5 3/3/6 5/5/7
f 4/6/8 5/5/7 3/3/9 1/2/10
f 5/5/7 4/6/8 6/4/4
s off
f 6/4/11 4/6/12 1/2/13 2/1/14
